<svg width="26" height="26" viewBox="0 0 26 26" fill="none" xmlns="http://www.w3.org/2000/svg">
<path fill-rule="evenodd" clip-rule="evenodd" d="M8.63278 9.36933C8.15608 9.36933 7.68406 9.46322 7.24365 9.64565C6.80324 9.82807 6.40308 10.0955 6.066 10.4325C5.72893 10.7696 5.46155 11.1698 5.27913 11.6102C5.0967 12.0506 5.00281 12.5226 5.00281 12.9993C5.00281 13.476 5.0967 13.948 5.27913 14.3884C5.46155 14.8288 5.72893 15.229 6.066 15.5661C6.40308 15.9031 6.80324 16.1705 7.24365 16.3529C7.68406 16.5354 8.15608 16.6293 8.63278 16.6293H12.2627V9.36933H8.63278ZM12.2627 7.26134H8.63278C7.66987 7.26134 6.74639 6.87882 6.06551 6.19794C5.38463 5.51706 5.00211 4.59358 5.00211 3.63067C5.00211 2.66776 5.38463 1.74428 6.06551 1.0634C6.74639 0.382516 7.66987 0 8.63278 0H12.2627V7.26134ZM14.3707 0V7.26134H18.0007C18.9513 7.24264 19.8565 6.8519 20.5222 6.17305C21.1878 5.49421 21.5606 4.5814 21.5606 3.63067C21.5606 2.67994 21.1878 1.76713 20.5222 1.08828C19.8565 0.409436 18.9513 0.018702 18.0007 0H14.3707ZM18.0007 9.36793C17.0479 9.36781 16.1332 9.74233 15.4541 10.4107C14.775 11.079 14.3859 11.9876 14.3707 12.9403V13.0569C14.3824 13.7722 14.6051 14.4682 15.011 15.0573C15.4169 15.6464 15.9878 16.1025 16.652 16.3682C17.3162 16.6339 18.0442 16.6974 18.7444 16.5508C19.4446 16.4041 20.0858 16.0538 20.5876 15.5439C21.0894 15.034 21.4293 14.3871 21.5646 13.6846C21.7 12.9821 21.6247 12.2553 21.3483 11.5955C21.0719 10.9356 20.6067 10.3721 20.0111 9.97583C19.4155 9.57951 18.7161 9.36802 18.0007 9.36793ZM8.63278 18.7373C7.9145 18.737 7.21227 18.9497 6.61491 19.3486C6.01755 19.7474 5.55189 20.3145 5.27683 20.978C5.00176 21.6415 4.92965 22.3717 5.06961 23.0762C5.20956 23.7807 5.55531 24.4279 6.06311 24.9359C6.57091 25.4439 7.21796 25.7899 7.92241 25.9301C8.62687 26.0704 9.35709 25.9985 10.0207 25.7237C10.6843 25.4489 11.2516 24.9835 11.6507 24.3863C12.0497 23.7891 12.2627 23.0869 12.2627 22.3686V18.7373H8.63278Z" fill="white"/>
</svg>
