<svg width="26" height="26" viewBox="0 0 26 26" fill="none" xmlns="http://www.w3.org/2000/svg">
<path d="M7.67005 0.392774C8.56473 0.694684 9.41559 1.11351 10.2005 1.63836C11.3098 1.35444 12.4505 1.212 13.5955 1.21443C14.778 1.21443 15.9188 1.3621 16.9882 1.63717C17.7728 1.11282 18.6232 0.694407 19.5174 0.392774C20.3474 0.110552 21.5299 -0.34672 22.2325 0.43088C22.7088 0.959601 22.8279 1.84557 22.9124 2.52195C23.0077 3.27692 23.0303 4.26053 22.7803 5.237C23.7365 6.47187 24.3128 7.94491 24.3128 9.55012C24.3128 11.9818 22.9958 14.0931 21.0464 15.5554C20.1078 16.2495 19.0675 16.7942 17.9622 17.1701C18.2171 17.7536 18.3588 18.399 18.3588 19.0766V22.6491C18.3588 22.9649 18.2333 23.2678 18.01 23.4911C17.7867 23.7144 17.4838 23.8399 17.168 23.8399H10.0231C9.70727 23.8399 9.40438 23.7144 9.18106 23.4911C8.95774 23.2678 8.83228 22.9649 8.83228 22.6491V21.469C7.69505 21.6083 6.74121 21.4844 5.93027 21.1403C5.08241 20.7807 4.49177 20.2234 4.0476 19.6899C3.62605 19.185 3.1664 18.0466 2.50192 17.8251C2.35352 17.7757 2.2163 17.6975 2.0981 17.5951C1.97991 17.4926 1.88304 17.3679 1.81305 17.228C1.67169 16.9455 1.64834 16.6184 1.74814 16.3187C1.84794 16.019 2.06271 15.7712 2.34521 15.6298C2.62771 15.4885 2.9548 15.4651 3.25452 15.5649C4.0476 15.8293 4.56441 16.4009 4.91808 16.8605C5.48967 17.5988 5.95409 18.5634 6.8591 18.948C7.23183 19.1064 7.77841 19.21 8.63341 19.0933L8.83228 19.0528C8.83502 18.4048 8.96996 17.7642 9.22882 17.1701C8.1236 16.7942 7.08321 16.2495 6.14462 15.5554C4.19526 14.0931 2.87822 11.9829 2.87822 9.55012C2.87822 7.94729 3.45338 6.47544 4.40722 5.24176C4.15715 4.2653 4.17859 3.2793 4.27385 2.52314L4.27981 2.47789C4.36673 1.78483 4.46795 0.969127 4.9538 0.43088C5.65638 -0.34672 6.84005 0.111743 7.66886 0.393965L7.67005 0.392774Z" fill="white"/>
</svg>
