<svg width="26" height="26" viewBox="0 0 26 26" fill="none" xmlns="http://www.w3.org/2000/svg">
<path d="M7.67005 1.47285C8.56473 1.77476 9.41559 2.19358 10.2005 2.71844C11.3098 2.43452 12.4505 2.29208 13.5955 2.29451C14.778 2.29451 15.9188 2.44217 16.9882 2.71725C17.7728 2.1929 18.6232 1.77449 19.5174 1.47285C20.3474 1.19063 21.5299 0.733358 22.2325 1.51096C22.7088 2.03968 22.8279 2.92564 22.9124 3.60202C23.0077 4.357 23.0303 5.34061 22.7803 6.31708C23.7365 7.55195 24.3128 9.02498 24.3128 10.6302C24.3128 13.0618 22.9958 15.1731 21.0464 16.6355C20.1078 17.3296 19.0675 17.8743 17.9622 18.2502C18.2171 18.8337 18.3588 19.4791 18.3588 20.1567V23.7291C18.3588 24.045 18.2333 24.3478 18.01 24.5712C17.7867 24.7945 17.4838 24.9199 17.168 24.9199H10.0231C9.70727 24.9199 9.40438 24.7945 9.18106 24.5712C8.95774 24.3478 8.83228 24.045 8.83228 23.7291V22.549C7.69505 22.6884 6.74121 22.5645 5.93027 22.2204C5.08241 21.8607 4.49177 21.3034 4.0476 20.77C3.62605 20.2651 3.1664 19.1266 2.50192 18.9052C2.35352 18.8557 2.2163 18.7776 2.0981 18.6751C1.97991 18.5727 1.88304 18.448 1.81305 18.3081C1.67169 18.0256 1.64834 17.6985 1.74814 17.3988C1.84794 17.0991 2.06271 16.8513 2.34521 16.7099C2.62771 16.5685 2.9548 16.5452 3.25452 16.645C4.0476 16.9094 4.56441 17.4809 4.91808 17.9406C5.48967 18.6789 5.95409 19.6435 6.8591 20.0281C7.23183 20.1865 7.77841 20.2901 8.63341 20.1734L8.83228 20.1329C8.83502 19.4849 8.96996 18.8443 9.22882 18.2502C8.1236 17.8743 7.08321 17.3296 6.14462 16.6355C4.19526 15.1731 2.87822 13.063 2.87822 10.6302C2.87822 9.02737 3.45338 7.55552 4.40722 6.32184C4.15715 5.34537 4.17859 4.35938 4.27385 3.60322L4.27981 3.55796C4.36673 2.86491 4.46795 2.04921 4.9538 1.51096C5.65638 0.733358 6.84005 1.19182 7.66886 1.47404L7.67005 1.47285Z" fill="white"/>
</svg>
